{
	"asset":{
		"version":"2.0",
		"generator":"Maxon Cinema 4D 2024.2.0 (#200000219)"
	},
	"scenes":[{
		"nodes":[0]
	}],
	"meshes":[{
		"name":"그",
		"primitives":[{
			"material":0,
			"attributes":{
				"POSITION":1,
				"NORMAL":2,
				"TEXCOORD_0":3
			},
			"indices":0
		}]
	},
	{
		"name":"때",
		"primitives":[{
			"material":0,
			"attributes":{
				"POSITION":5,
				"NORMAL":6,
				"TEXCOORD_0":7
			},
			"indices":4
		}]
	},
	{
		"name":"의",
		"primitives":[{
			"material":0,
			"attributes":{
				"POSITION":9,
				"NORMAL":10,
				"TEXCOORD_0":11
			},
			"indices":8
		}]
	},
	{
		"name":"설",
		"primitives":[{
			"material":0,
			"attributes":{
				"POSITION":13,
				"NORMAL":14,
				"TEXCOORD_0":15
			},
			"indices":12
		}]
	},
	{
		"name":"레",
		"primitives":[{
			"material":0,
			"attributes":{
				"POSITION":17,
				"NORMAL":18,
				"TEXCOORD_0":19
			},
			"indices":16
		}]
	},
	{
		"name":"임",
		"primitives":[{
			"material":0,
			"attributes":{
				"POSITION":21,
				"NORMAL":22,
				"TEXCOORD_0":23
			},
			"indices":20
		}]
	}],
	"nodes":[{
		"name":"그때의 설레임",
		"translation":[-3.0483462810516359,
		0.0,
		0.0],
		"rotation":[0.0,
		0.0,
		0.0,
		-1.0],
		"scale":[1.0,
		1.0,
		1.0],
		"children":[1]
	},
	{
		"name":"1",
		"children":[2,
		3]
	},
	{
		"name":"그때의",
		"children":[4,
		5,
		6]
	},
	{
		"name":"설레임",
		"translation":[3.1356000900268556,
		0.0,
		0.0],
		"rotation":[0.0,
		0.0,
		0.0,
		-1.0],
		"scale":[1.0,
		1.0,
		1.0],
		"children":[7,
		8,
		9]
	},
	{
		"name":"그",
		"mesh":0
	},
	{
		"name":"때",
		"mesh":1,
		"translation":[0.9734399914741516,
		0.0,
		0.0],
		"rotation":[0.0,
		0.0,
		0.0,
		-1.0],
		"scale":[1.0,
		1.0,
		1.0]
	},
	{
		"name":"의",
		"mesh":2,
		"translation":[1.9468799829483033,
		0.0,
		0.0],
		"rotation":[0.0,
		0.0,
		0.0,
		-1.0],
		"scale":[1.0,
		1.0,
		1.0]
	},
	{
		"name":"설",
		"mesh":3
	},
	{
		"name":"레",
		"mesh":4,
		"translation":[0.9734399914741516,
		0.0,
		0.0],
		"rotation":[0.0,
		0.0,
		0.0,
		-1.0],
		"scale":[1.0,
		1.0,
		1.0]
	},
	{
		"name":"임",
		"mesh":5,
		"translation":[1.9468799829483033,
		0.0,
		0.0],
		"rotation":[0.0,
		0.0,
		0.0,
		-1.0],
		"scale":[1.0,
		1.0,
		1.0]
	}],
	"accessors":[{
		"bufferView":0,
		"byteOffset":0,
		"type":"SCALAR",
		"componentType":5123,
		"count":84,
		"min":[0],
		"max":[83]
	},
	{
		"bufferView":1,
		"byteOffset":0,
		"type":"VEC3",
		"componentType":5126,
		"count":84,
		"min":[0.05615999922156334,
		-0.1226160004734993,
		-0.09359999746084213],
		"max":[0.9172800183296204,
		0.7310159802436829,
		0.0]
	},
	{
		"bufferView":1,
		"byteOffset":12,
		"type":"VEC3",
		"componentType":5126,
		"count":84,
		"min":[-1.0,
		-1.0,
		-1.0],
		"max":[1.0,
		1.0,
		1.0]
	},
	{
		"bufferView":1,
		"byteOffset":24,
		"type":"VEC2",
		"componentType":5126,
		"count":84,
		"min":[0.0,
		0.0],
		"max":[1.0,
		1.0]
	},
	{
		"bufferView":2,
		"byteOffset":0,
		"type":"SCALAR",
		"componentType":5123,
		"count":708,
		"min":[0],
		"max":[707]
	},
	{
		"bufferView":3,
		"byteOffset":0,
		"type":"VEC3",
		"componentType":5126,
		"count":708,
		"min":[0.06552000343799591,
		-0.1226160004734993,
		-0.09359999746084213],
		"max":[0.9079200029373169,
		0.7310159802436829,
		0.0]
	},
	{
		"bufferView":3,
		"byteOffset":12,
		"type":"VEC3",
		"componentType":5126,
		"count":708,
		"min":[-1.0,
		-1.0,
		-1.0],
		"max":[1.0,
		1.0,
		1.0]
	},
	{
		"bufferView":3,
		"byteOffset":24,
		"type":"VEC2",
		"componentType":5126,
		"count":708,
		"min":[0.0,
		0.0],
		"max":[1.0,
		1.0]
	},
	{
		"bufferView":4,
		"byteOffset":0,
		"type":"SCALAR",
		"componentType":5123,
		"count":1788,
		"min":[0],
		"max":[1787]
	},
	{
		"bufferView":5,
		"byteOffset":0,
		"type":"VEC3",
		"componentType":5126,
		"count":1788,
		"min":[0.06552000343799591,
		-0.1226160004734993,
		-0.09359999746084213],
		"max":[0.8985599875450134,
		0.7413120269775391,
		0.0]
	},
	{
		"bufferView":5,
		"byteOffset":12,
		"type":"VEC3",
		"componentType":5126,
		"count":1788,
		"min":[-1.0,
		-1.0,
		-1.0],
		"max":[1.0,
		1.0,
		1.0]
	},
	{
		"bufferView":5,
		"byteOffset":24,
		"type":"VEC2",
		"componentType":5126,
		"count":1788,
		"min":[0.0,
		0.0],
		"max":[1.0,
		1.0]
	},
	{
		"bufferView":6,
		"byteOffset":0,
		"type":"SCALAR",
		"componentType":5123,
		"count":2520,
		"min":[0],
		"max":[2519]
	},
	{
		"bufferView":7,
		"byteOffset":0,
		"type":"VEC3",
		"componentType":5126,
		"count":2520,
		"min":[0.05615999922156334,
		-0.1226160004734993,
		-0.09359999746084213],
		"max":[0.9079200029373169,
		0.7310159802436829,
		0.0]
	},
	{
		"bufferView":7,
		"byteOffset":12,
		"type":"VEC3",
		"componentType":5126,
		"count":2520,
		"min":[-1.0,
		-1.0,
		-1.0],
		"max":[1.0,
		1.0,
		1.0]
	},
	{
		"bufferView":7,
		"byteOffset":24,
		"type":"VEC2",
		"componentType":5126,
		"count":2520,
		"min":[0.0,
		0.0],
		"max":[1.0,
		1.0]
	},
	{
		"bufferView":8,
		"byteOffset":0,
		"type":"SCALAR",
		"componentType":5123,
		"count":1548,
		"min":[0],
		"max":[1547]
	},
	{
		"bufferView":9,
		"byteOffset":0,
		"type":"VEC3",
		"componentType":5126,
		"count":1548,
		"min":[0.05615999922156334,
		-0.1226160004734993,
		-0.09359999746084213],
		"max":[0.9079200029373169,
		0.7310159802436829,
		0.0]
	},
	{
		"bufferView":9,
		"byteOffset":12,
		"type":"VEC3",
		"componentType":5126,
		"count":1548,
		"min":[-1.0,
		-1.0,
		-1.0],
		"max":[1.0,
		1.0,
		1.0]
	},
	{
		"bufferView":9,
		"byteOffset":24,
		"type":"VEC2",
		"componentType":5126,
		"count":1548,
		"min":[0.0,
		0.0],
		"max":[1.0,
		1.0]
	},
	{
		"bufferView":10,
		"byteOffset":0,
		"type":"SCALAR",
		"componentType":5123,
		"count":2208,
		"min":[0],
		"max":[2207]
	},
	{
		"bufferView":11,
		"byteOffset":0,
		"type":"VEC3",
		"componentType":5126,
		"count":2208,
		"min":[0.05615999922156334,
		-0.1226160004734993,
		-0.09359999746084213],
		"max":[0.8985599875450134,
		0.7310159802436829,
		0.0]
	},
	{
		"bufferView":11,
		"byteOffset":12,
		"type":"VEC3",
		"componentType":5126,
		"count":2208,
		"min":[-1.0,
		-1.0,
		-1.0],
		"max":[1.0,
		1.0,
		1.0]
	},
	{
		"bufferView":11,
		"byteOffset":24,
		"type":"VEC2",
		"componentType":5126,
		"count":2208,
		"min":[0.0,
		0.0],
		"max":[1.0,
		1.0]
	}],
	"bufferViews":[{
		"buffer":0,
		"byteOffset":0,
		"byteLength":168,
		"target":34963
	},
	{
		"buffer":0,
		"byteOffset":168,
		"byteLength":2688,
		"target":34962,
		"byteStride":32
	},
	{
		"buffer":1,
		"byteOffset":0,
		"byteLength":1416,
		"target":34963
	},
	{
		"buffer":1,
		"byteOffset":1416,
		"byteLength":22656,
		"target":34962,
		"byteStride":32
	},
	{
		"buffer":2,
		"byteOffset":0,
		"byteLength":3576,
		"target":34963
	},
	{
		"buffer":2,
		"byteOffset":3576,
		"byteLength":57216,
		"target":34962,
		"byteStride":32
	},
	{
		"buffer":3,
		"byteOffset":0,
		"byteLength":5040,
		"target":34963
	},
	{
		"buffer":3,
		"byteOffset":5040,
		"byteLength":80640,
		"target":34962,
		"byteStride":32
	},
	{
		"buffer":4,
		"byteOffset":0,
		"byteLength":3096,
		"target":34963
	},
	{
		"buffer":4,
		"byteOffset":3096,
		"byteLength":49536,
		"target":34962,
		"byteStride":32
	},
	{
		"buffer":5,
		"byteOffset":0,
		"byteLength":4416,
		"target":34963
	},
	{
		"buffer":5,
		"byteOffset":4416,
		"byteLength":70656,
		"target":34962,
		"byteStride":32
	}],
	"buffers":[{
		"uri":"data:application/octet-stream;base64,",
		"byteLength":2856
	},
	{
		"uri":"data:application/octet-stream;base64,",
		"byteLength":24072
	},
	{
		"uri":"data:application/octet-stream;base64,",
		"byteLength":60792
	},
	{
		"uri":"data:application/octet-stream;base64,",
		"byteLength":85680
	},
	{
		"uri":"data:application/octet-stream;base64,",
		"byteLength":52632
	},
	{
		"uri":"data:application/octet-stream;base64,",
		"byteLength":75072
	}],
	"materials":[{
		"pbrMetallicRoughness":{
			"baseColorFactor":[1.0,
			0.39568345323740986,
			0.39568345323740986,
			1.0],
			"metallicFactor":0.0,
			"roughnessFactor":0.20000000298023225
		},
		"emissiveFactor":[0.0,
		0.0,
		0.0],
		"alphaMode":"OPAQUE",
		"doubleSided":false,
		"name":"RS Standard"
	}]
}